<?xml version="1.0" encoding="UTF-8"?>
<svg id="Layer_1" xmlns="http://www.w3.org/2000/svg" version="1.1" viewBox="0 0 300 150">
  <!-- Generator: Adobe Illustrator 29.2.0, SVG Export Plug-In . SVG Version: 2.1.0 Build 108)  -->
  <defs>
    <style>
      .st0 {
        fill: #019395;
      }
    </style>
  </defs>
  <path class="st0" d="M108.77,93.07c-.77,1.84-3,4.36-5.1,5.29h0s-.48.35-1.53.35c-.99,0-1.53-.35-1.53-.35h0c-.42-.21-3.47-2.38-5.1-5.29-.6-1.08-.15-2.32,1.24-2.85,4.62-1.78,8.27-1.08,10.52-.14,1.47.61,1.99,1.82,1.5,2.99M142.24,88.67c-.2-14.63-9.01-25.55-9.01-25.55-1.89-2.37-4.03-4.47-6.41-6.3-2.02-1.63-4.2-3.06-6.5-4.27,1.55-5.11,7.43-9.54,27-.36,8.19,3.84,6.17-16.02-10.04-25.77-9.97-5.99-25.79-11.76-28.42-.97-1.24,5.1-1.5,14.48-1.44,22.98-1.75-.24-3.52-.37-5.33-.37s-3.71.14-5.52.4c-5.67-7.66-15.61-20.52-21.56-25.05-8.69-6.62-17.36,8.16-21.36,19.29-6.52,18.11,4.18,34.78,8.15,26.46,10.21-21.41,17.87-20.23,22.06-16.59-13,6.83-21.91,20.73-21.91,36.77,0,.02,0,.03,0,.05-.15,3.29.23,7.39,1.79,12.2,1.2,3.98,2.98,7.7,5.22,11.06.05.08.09.15.14.23,0,0,0,0,0,0h0c7.25,10.72,19.31,17.74,32.98,17.74,22.17,0,40.15-18.48,40.15-41.28,0-.22-.01-.44-.02-.66,0,0,0,0,0,0"/>
  <path class="st0" d="M223,81.07c-3.6.92-8.17-.57-10.08-2.96,1-2.48,2.33-4.39,3.99-5.74.61-.46,3.37-2.38,6.73-2.01.47.07,5.59.83,7.53,2.2.6,3.35-2.84,7.14-8.18,8.51M191.97,81.07c-5.35-1.37-8.78-5.15-8.18-8.51,1.94-1.37,7.06-2.13,7.53-2.2,3.36-.37,6.12,1.54,6.73,2.01,1.65,1.35,2.99,3.26,3.99,5.74-1.91,2.39-6.48,3.88-10.08,2.96M248.38,87.62c.18-7.69-2.45-16.06-4.88-22.15-.01-.04-.03-.08-.03-.13-.03-.06-.06-.11-.09-.17-1.7-4.23-3.28-7.3-3.67-8.17,0,0,0-.02,0-.02h0c-3.3-7.38-5.17-14.02-7.2-17.8-1.08-3.07-4.98-3.77-7.01-1.27l-7.79,9.65c-2.88-.76-5.87-1.2-8.95-1.29-.09,0-.18,0-.27,0-.31,0-.62-.02-.92-.02-.03,0-.05,0-.08,0s-.05,0-.08,0c-.31,0-.62,0-.92.02-.09,0-.18,0-.28,0-3.08.09-6.08.54-8.95,1.29l-7.79-9.65c-2.02-2.51-5.93-1.8-7.01,1.27-2.02,3.78-3.89,10.42-7.2,17.79h0s0,.02,0,.02c-1,2.23-9.75,18.83-8.58,32.43,0,.03.09,1.15.13,1.45.49,8.14,3.24,15.64,7.61,21.87.34.62.72,1.22,1.19,1.82,1.07,1.6,2.26,3.07,3.55,4.43,3.49,3.66,7.53,6.47,12.1,8.41,4.58,1.94,9.26,2.99,14.06,3.14.72.04,1.44.05,2.16.05h0c.71,0,1.43-.02,2.16-.05,4.8-.15,9.48-1.2,14.06-3.14,4.58-1.94,8.61-4.74,12.1-8.41,1.29-1.36,2.48-2.83,3.55-4.43,5.65-7.2,9.04-16.36,9.04-26.34,0-.2-.01-.41-.02-.62"/>
</svg>