<?xml version="1.0" encoding="UTF-8"?>
<svg id="Layer_1" xmlns="http://www.w3.org/2000/svg" version="1.1" viewBox="0 0 300 150">
  <!-- Generator: Adobe Illustrator 29.2.0, SVG Export Plug-In . SVG Version: 2.1.0 Build 108)  -->
  <defs>
    <style>
      .st0 {
        fill: #fdfeff;
      }

      .st1 {
        fill: #34a9db;
      }

      .st2 {
        fill: #30a7df;
      }

      .st3 {
        fill: #32a9db;
      }

      .st4 {
        fill: #37aada;
      }

      .st5 {
        fill: #37a9dc;
      }

      .st6 {
        fill: #f6fbfd;
      }

      .st7 {
        fill: #ecf7fa;
      }

      .st8 {
        fill: #37a9db;
      }

      .st9 {
        fill: #f6fbfb;
      }
    </style>
  </defs>
  <path class="st2" d="M181.95,111.11c-22.2,0-44.32-.05-66.44.03-5.98.02-11.52-4.96-11.5-11.45.09-23.06.09-46.11,0-69.17-.02-6.64,4.99-11.64,11.68-11.62,22.91.08,45.83.03,68.74.04.99,0,1.99.1,2.96.29,4.76.95,8.42,5.35,8.57,10.2,0,.31.01.63.01.94,0,23.17,0,46.34,0,69.51,0,4.23-1.9,7.41-5.47,9.61-1.78,1.09-3.71,1.7-5.83,1.62-.88-.03-1.76,0-2.73,0M166.55,54.36c.41.91.9,1.79,1.21,2.72.5,1.52,1.5,2.52,2.9,3.17,3.33,1.54,7.72.6,10.51-2.25,2.03-2.08,2.56-4.57,1.56-7.24-2.18-5.87-5.8-10.69-11.03-14.18-8.45-5.63-17.79-7.16-27.59-5.14-10.86,2.24-18.81,8.59-23.77,18.5-3.09,6.18-4.1,12.79-3.16,19.66.97,7.04,3.77,13.26,8.57,18.51,5.9,6.45,13.21,10.24,21.94,11.08,7.72.74,15.09-.48,21.9-4.35,6.28-3.57,10.6-8.84,13.14-15.58.16-.42.23-.88.26-1.33.19-3.6-1.9-6.72-5.45-8.01-3.99-1.45-8.2-.57-10.2,3.91-2.04,4.57-5.62,7.52-10.47,8.79-1.44.38-2.97.54-4.46.61-2.57.13-5.13-.06-7.49-1.22-.96-.47-1.86-.51-2.86-.11-1.34.54-2.72.99-4.1,1.44-1.25.41-2.52.78-3.87,1.2.03-.37.03-.6.07-.81.52-2.71,1.07-5.41,1.56-8.12.08-.44.03-1-.18-1.37-2.15-3.74-2.97-7.76-2.26-12,.9-5.39,3.59-9.7,8.27-12.66,3.49-2.21,7.31-3,11.41-2.72,3.29.23,6.41.95,9.2,2.77,1.81,1.18,3.32,2.66,4.38,4.72Z"/>
  <path class="st3" d="M158.34,119.52c1.86.44,3.21,1.44,4.04,3.09.45.89.23,1.51-.69,1.93-1.99.92-3.98,1.81-5.97,2.71-.25.11-.5.24-.76.36.64.93,2.16,1.28,3.32.79.9-.38,1.59-.96,1.99-1.88.42-.95,1.06-1.24,1.8-.88.69.34.88,1.13.46,1.99-1.1,2.29-3.37,3.65-5.77,3.44-2.57-.22-4.62-1.85-5.25-4.39-1.06-4.28,2.6-7.98,6.83-7.17M154.7,124.95c1.56-.7,3.12-1.41,4.79-2.16-1.22-1-2.43-1.11-3.65-.6-1.28.53-1.94,1.57-2.01,3.09.3-.11.52-.2.86-.33Z"/>
  <path class="st3" d="M186.04,130.96c-3.22-.61-5.25-3.86-4.53-7.14.67-3.07,4.05-5.05,7.21-4.23,2.56.67,4.3,2.88,4.34,5.55.02,1.39,0,2.79.01,4.18,0,.71,0,1.4-.82,1.68-.84.29-1.34-.2-1.77-.93-1.33.95-2.79,1.2-4.43.89M189.87,127.31c.22-.77.6-1.53.64-2.31.06-1.33-.98-2.55-2.28-2.94-1.39-.42-2.81.05-3.71,1.22-.8,1.05-.83,2.55-.18,3.68,1.04,1.8,3.83,2.32,5.53.36Z"/>
  <path class="st1" d="M116.93,122.65c2.36-4.2,7.85-4.36,10.3-.36,1.56,2.54.86,5.87-1.6,7.68-2.43,1.78-5.86,1.43-7.81-.82-1.68-1.94-1.92-4.11-.9-6.5M121.64,128.56c.2,0,.4.02.6.02,1.44,0,2.44-.73,3.01-1.99.57-1.25.34-2.45-.56-3.49-.93-1.07-2.11-1.41-3.46-1.03-1.45.4-2.35,1.64-2.36,3.17-.01,1.68.86,2.78,2.77,3.32Z"/>
  <path class="st5" d="M176.03,121.88c-1.27,0-2.46,0-3.66-.01-.9,0-1.38-.46-1.38-1.26,0-.79.48-1.25,1.39-1.26,1.96-.01,3.92,0,5.89,0,.81,0,1.44.34,1.77,1.09.36.81.23,1.54-.4,2.19-1.62,1.68-3.23,3.36-4.84,5.04-.21.21-.39.45-.77.87,1.43,0,2.61,0,3.79,0,.4,0,.8,0,1.19,0,.74.01,1.18.39,1.26,1.12.08.7-.37,1.33-1.1,1.35-2.36.04-4.72.05-7.08,0-.7-.02-1.16-.53-1.4-1.21-.26-.72-.14-1.33.38-1.88,1.67-1.75,3.33-3.5,4.99-5.26.19-.2.37-.41.64-.72-.29-.03-.45-.05-.67-.07Z"/>
  <path class="st4" d="M136.53,126.33c0-.71,0-1.34-.01-1.96-.03-1.37-1.05-2.44-2.32-2.46-1.35-.02-2.42.99-2.46,2.42-.04,1.82-.02,3.64-.01,5.46,0,.64-.33,1.11-.88,1.18-.43.06-.97-.16-1.35-.41-.21-.14-.27-.61-.27-.93-.02-1.82-.03-3.64,0-5.46.03-2.6,2.2-4.74,4.82-4.78,2.64-.04,4.89,1.98,5,4.59.08,1.93.04,3.87.02,5.81,0,.79-.55,1.31-1.28,1.3-.73-.01-1.23-.53-1.24-1.33-.01-1.11,0-2.22,0-3.42Z"/>
  <path class="st1" d="M145.06,126.96c.48.74.52.02.6-.15.92-2.1,1.83-4.22,2.72-6.34.24-.56.53-1.01,1.19-1.07,1.03-.1,1.63.86,1.18,1.94-.91,2.17-1.85,4.33-2.78,6.5-.29.68-.58,1.36-.87,2.04-.33.79-.91,1.21-1.77,1.21-.86,0-1.42-.42-1.76-1.22-1.19-2.8-2.4-5.58-3.6-8.37-.28-.64-.38-1.26.23-1.79.7-.61,1.58-.39,1.99.54.97,2.21,1.91,4.43,2.89,6.71Z"/>
  <path class="st1" d="M108.68,129.39c-2.69-2.69-2.23-7.21,1.23-9.24,1.4-.82,2.9-.95,4.45-.55.85.22,1.24.82,1.08,1.56-.15.72-.78,1.1-1.65.9-2.55-.56-4.05,1.11-4.27,2.68-.32,2.36,1.64,4.2,4.01,3.77.38-.07.89-.19,1.14-.01.36.26.69.76.75,1.2.08.68-.45,1.06-1.09,1.2-2.11.46-4,.03-5.65-1.52Z"/>
  <path class="st8" d="M166.53,130.11c-.3.77-.8,1.13-1.56.92-.71-.19-.94-.74-.93-1.44.01-1.9-.01-3.81.01-5.71.03-2.77,2.35-4.81,5.09-4.48.82.1,1.26.58,1.2,1.36-.06.74-.49,1.09-1.23,1.14-2.01.13-2.54.69-2.54,2.69,0,1.82-.02,3.64-.04,5.53Z"/>
  <path class="st0" d="M166.52,54.3c-1.03-2-2.54-3.49-4.35-4.67-2.79-1.82-5.91-2.54-9.2-2.77-4.1-.28-7.92.51-11.41,2.72-4.68,2.96-7.37,7.27-8.27,12.66-.71,4.24.11,8.26,2.26,12,.21.37.26.93.18,1.37-.49,2.71-1.04,5.41-1.56,8.12-.04.22-.04.44-.07.81,1.35-.42,2.62-.78,3.87-1.2,1.38-.45,2.76-.9,4.1-1.44,1-.4,1.9-.36,2.86.11,2.37,1.16,4.92,1.35,7.49,1.22,1.5-.07,3.02-.23,4.46-.61,4.85-1.27,8.43-4.22,10.47-8.79,2-4.48,6.21-5.36,10.2-3.91,3.55,1.29,5.64,4.41,5.45,8.01-.02.45-.1.91-.26,1.33-2.54,6.74-6.85,12.01-13.14,15.58-6.81,3.87-14.19,5.1-21.9,4.35-8.73-.84-16.04-4.63-21.94-11.08-4.8-5.25-7.6-11.47-8.57-18.51-.95-6.87.06-13.48,3.16-19.66,4.96-9.91,12.91-16.26,23.77-18.5,9.8-2.02,19.15-.49,27.59,5.14,5.23,3.48,8.85,8.31,11.03,14.18.99,2.68.47,5.17-1.56,7.24-2.8,2.85-7.18,3.79-10.51,2.25-1.4-.65-2.4-1.65-2.9-3.17-.31-.94-.8-1.82-1.24-2.78Z"/>
  <path class="st7" d="M154.64,124.97c-.28.11-.51.19-.81.31.06-1.52.73-2.56,2.01-3.09,1.22-.51,2.43-.4,3.65.6-1.67.75-3.23,1.46-4.85,2.18Z"/>
  <path class="st9" d="M189.83,127.36c-1.66,1.92-4.44,1.4-5.49-.41-.66-1.13-.62-2.64.18-3.68.89-1.17,2.32-1.64,3.71-1.22,1.3.4,2.34,1.61,2.28,2.94-.04.78-.41,1.54-.68,2.36Z"/>
  <path class="st6" d="M121.57,128.55c-1.84-.54-2.71-1.64-2.7-3.32.01-1.53.91-2.77,2.36-3.17,1.36-.38,2.54-.03,3.46,1.03.9,1.04,1.13,2.24.56,3.49-.58,1.26-1.58,1.99-3.01,1.99-.2,0-.4-.01-.67-.03Z"/>
</svg>