<?xml version="1.0" encoding="UTF-8"?>
<svg id="Layer_1" xmlns="http://www.w3.org/2000/svg" version="1.1" viewBox="0 0 300 150">
  <!-- Generator: Adobe Illustrator 29.2.0, SVG Export Plug-In . SVG Version: 2.1.0 Build 108)  -->
  <defs>
    <style>
      .st0 {
        fill: #252354;
      }
    </style>
  </defs>
  <g id="_Слой_2" data-name="Слой_2">
    <g id="Menu">
      <g id="Logo">
        <path class="st0" d="M197.13,106.95c-4.77,3.78-11.13,1.77-15.93.51v16.88h17.07c-.45-7.77-1.14-17.38-1.14-17.39"/>
        <path class="st0" d="M181.2,25.39v67.28c1.69-.08,4.27-.12,6.36-.24,10.54-.58,12.65-3.63,13.24-4.28,3.63-3.97,3.47-7.03,5.4-8.19,0,0-.11-2.19,1.35-2.19.31,0,.89.47,1.12.84,0,0,3.81.45,4.26,2.63.08.43.74,1.35,3.24,3.09,0,0,1.35.85,1.35,1.61,0,0,.08.55-1,.97,0,0-1.73.82-6.05-.23-3.36-.82-5.96,4.26-5.5,8.85,1.05,10.43-3.16,13.9-3.42,15.31,0,0-.22,7.65-.36,13.51h16.04c.13-2.89-.4-5.78-1.55-8.43-1.85-4.47,0-6.61.95-7.93,1.2-2.01-.96-2.34-.96-2.34-.45-.11-1.18,0-1.63-.41-.46-.36-.73-.91-.74-1.49-.01-.12.04-.23.14-.3l.64-.59c.19-.16.35-1.96,1.84-2.31.65-.15,1.28-.36,1.89-.61.44-.82,1.15-1.47,2.01-1.82.63.85,1,1.87,1.05,2.93.96,1.06,1.49,2.43,1.51,3.85.55,6.31,7.73,6.9,10.01,13,.75,2.08,1.12,4.27,1.09,6.47,1.99-1.66,2.31-4.59.72-6.63-2.49-3.82-2.2-6.05-1.35-7.01.73-.76,1.84-1.02,2.84-.68.56.16,1.02.56,1.26,1.09.08.15.08.33,0,.49-.08.15-.23.18-.39.2-.56.08-1.02.46-1.22.99-.18.69-.13,1.41.14,2.07.25.63.55,1.23.92,1.8l.15.24c.66,1.01,1.15,2.12,1.45,3.28v.12c.37,1.33.37,2.73,0,4.05h5.12c.89-6.65,10.42-60.64-61.82-98.95"/>
        <path class="st0" d="M82.21,75.55c1.2.72,2.58,1.09,3.99,1.05,1.4.03,2.79-.34,3.99-1.07,1.08-.7,1.95-1.68,2.5-2.85.58-1.27.86-2.66.84-4.05.01-1.36-.27-2.7-.84-3.93-.55-1.16-1.42-2.13-2.5-2.82-1.2-.74-2.58-1.11-3.99-1.07-1.4-.04-2.79.33-3.99,1.07-1.08.69-1.95,1.68-2.49,2.85-1.12,2.53-1.12,5.41,0,7.93.54,1.17,1.4,2.16,2.49,2.85M80.24,68.67c-.02-1.19.22-2.38.69-3.47.46-.98,1.19-1.8,2.11-2.36.96-.61,2.09-.92,3.23-.89,1.15-.03,2.28.28,3.24.89.9.59,1.61,1.42,2.04,2.41.92,2.23.92,4.74,0,6.97-.43.98-1.14,1.82-2.04,2.41-.97.61-2.1.92-3.24.88-1.14.04-2.27-.27-3.23-.88-.9-.59-1.61-1.42-2.04-2.41-.47-1.1-.71-2.3-.69-3.5"/>
        <path class="st0" d="M109.67,75.6c1.1-.66,1.98-1.63,2.53-2.8.58-1.27.87-2.66.85-4.05.03-1.4-.27-2.78-.85-4.05-.54-1.17-1.42-2.15-2.53-2.82-1.23-.71-2.63-1.07-4.05-1.03h-5.15v15.77h5.15c1.42.04,2.82-.31,4.05-1.01M101.83,75.49v-13.51h3.78c1.68-.09,3.31.58,4.45,1.82,1.11,1.39,1.67,3.14,1.58,4.92.1,1.79-.47,3.55-1.58,4.96-1.15,1.24-2.8,1.91-4.49,1.81h-3.74Z"/>
        <polygon class="st0" points="119.75 76.61 129.1 76.61 129.1 75.49 121.11 75.49 121.11 68.83 127.71 68.83 127.71 67.71 121.11 67.71 121.11 61.95 129.1 61.95 129.1 60.83 119.75 60.83 119.75 76.61"/>
        <path class="st0" d="M144.94,67.8c.72-.75,1.11-1.76,1.08-2.8,0-.75-.19-1.49-.58-2.13-.43-.65-1.03-1.17-1.74-1.49-.87-.39-1.83-.58-2.78-.55h-4.92v15.78h1.35v-7.39h3.05l5.4,7.38h1.57l-5.51-7.51c1.14-.08,2.23-.56,3.05-1.35M144.62,64.97c.06.87-.29,1.72-.95,2.3-.82.56-1.81.83-2.8.77h-3.53v-6.08h3.55c.97-.04,1.93.25,2.7.84.65.56,1.01,1.39.97,2.24"/>
        <polygon class="st0" points="155.62 63.35 165.19 76.63 165.2 76.64 166.31 76.61 166.31 60.83 164.95 60.83 164.95 74.18 155.38 60.85 155.38 60.83 154.26 60.83 154.26 76.61 155.62 76.61 155.62 63.35"/>
        <polygon class="st0" points="69.93 60.83 64 74.67 57.93 60.85 57.93 60.83 56.01 60.83 56.01 76.68 57.36 76.68 57.36 62.86 63.42 76.7 64.6 76.7 70.64 62.53 70.64 76.68 72 76.68 72 60.83 69.93 60.83"/>
        <polygon class="st0" points="84.45 88.06 73.39 118.4 62.31 88.06 56.01 88.06 70.29 124.61 76.43 124.61 90.64 88.06 84.45 88.06"/>
        <polygon class="st0" points="103.13 88.06 103.13 124.61 126.36 124.61 126.36 120.15 109.32 120.15 109.32 107.52 123.1 107.52 123.1 103.06 109.32 103.06 109.32 92.52 125.28 92.52 125.28 88.06 103.13 88.06"/>
        <polygon class="st0" points="136.46 88.06 136.46 92.56 148.23 92.56 148.23 124.53 154.42 124.53 154.42 92.56 166.31 92.56 166.31 88.06 136.46 88.06"/>
      </g>
    </g>
  </g>
</svg>