<?xml version="1.0" encoding="UTF-8"?>
<svg id="Layer_2" data-name="Layer 2" xmlns="http://www.w3.org/2000/svg" viewBox="0 0 402.11 88.08">
  <defs>
    <style>
      .cls-1 {
        fill: #03aeda;
      }

      .cls-1, .cls-2 {
        stroke-width: 0px;
      }

      .cls-2 {
        fill: #023a53;
      }
    </style>
  </defs>
  <g id="Layer_1-2" data-name="Layer 1">
    <g>
      <g>
        <path class="cls-2" d="M144.78,57.75c0,.97-.24,1.86-.73,2.66-.48.81-1.13,1.45-1.94,1.94-.81.48-1.69.73-2.66.73s-1.84-.24-2.62-.73c-.78-.48-1.41-1.13-1.9-1.94-.48-.81-.73-1.69-.73-2.66v-26.06c0-3.12-.7-5.94-2.1-8.47-1.4-2.53-3.36-4.56-5.89-6.09-2.53-1.53-5.49-2.3-8.87-2.3s-6.27.77-8.79,2.3c-2.53,1.53-4.49,3.56-5.89,6.09-1.4,2.53-2.1,5.35-2.1,8.47v40.58h11.54V30.33c0-.97.24-1.86.73-2.66.48-.81,1.12-1.45,1.9-1.94.78-.48,1.65-.73,2.62-.73s1.86.24,2.66.73c.81.48,1.45,1.13,1.94,1.94.48.81.73,1.69.73,2.66v26.06c0,3.07.7,5.88,2.1,8.43,1.4,2.56,3.36,4.6,5.89,6.13,2.53,1.53,5.46,2.3,8.79,2.3s6.35-.77,8.87-2.3c2.53-1.53,4.49-3.58,5.89-6.13,1.4-2.55,2.1-5.36,2.1-8.43V15.81h-11.54v41.95Z"/>
        <path class="cls-2" d="M183.26,62.84c-1.99,0-3.78-.28-5.36-.85-1.59-.57-2.9-1.41-3.96-2.54-1.05-1.13-1.78-2.53-2.22-4.19h27.83c.11-.38.19-.93.24-1.65.05-.73.08-1.36.08-1.9,0-3.98-.67-7.59-2.02-10.85-1.35-3.25-3.46-5.85-6.33-7.79-2.88-1.93-6.63-2.9-11.25-2.9-3.87,0-7.34.89-10.41,2.67-3.06,1.77-5.49,4.27-7.26,7.5-1.77,3.22-2.66,7.01-2.66,11.37,0,3.87.95,7.37,2.86,10.49,1.91,3.12,4.6,5.58,8.07,7.38,3.47,1.81,7.54,2.7,12.22,2.7h13.17l6.05-9.44h-19.06ZM172.49,44.69c.4-1.02.96-1.94,1.66-2.74.7-.81,1.57-1.45,2.62-1.94,1.05-.48,2.24-.73,3.59-.73,1.02,0,1.96.14,2.82.4.86.27,1.62.65,2.26,1.13.65.48,1.21,1.07,1.7,1.77.48.7.86,1.5,1.13,2.38.27.89.45,1.84.57,2.86h-17.18c.16-1.07.44-2.13.84-3.15Z"/>
        <path class="cls-2" d="M314.08,61.99c-1.59-.57-2.9-1.41-3.96-2.54-1.05-1.13-1.78-2.53-2.22-4.19h27.83c.11-.38.19-.93.24-1.65.05-.73.08-1.36.08-1.9,0-3.98-.67-7.59-2.02-10.85-1.35-3.25-3.46-5.85-6.33-7.79-2.88-1.93-6.63-2.9-11.25-2.9-3.87,0-7.34.89-10.41,2.67-3.06,1.77-5.49,4.27-7.26,7.5-1.77,3.22-2.66,7.01-2.66,11.37,0,3.87.95,7.37,2.86,10.49,1.91,3.12,4.6,5.58,8.07,7.38,3.47,1.81,7.54,2.7,12.22,2.7h18.97v-9.44h-18.81c-1.99,0-3.78-.28-5.36-.85ZM308.68,44.69c.4-1.02.96-1.94,1.66-2.74.7-.81,1.57-1.45,2.62-1.94,1.05-.48,2.24-.73,3.59-.73,1.02,0,1.96.14,2.82.4.86.27,1.62.65,2.26,1.13.65.48,1.21,1.07,1.7,1.77.48.7.86,1.5,1.13,2.38.27.89.45,1.84.57,2.86h-17.18c.16-1.07.44-2.13.84-3.15Z"/>
        <polygon class="cls-2" points="237.74 31.39 225.84 31.39 219.62 43.32 212.53 31.39 200.63 31.39 213.59 51.06 200 72.27 211.47 72.27 219.14 59.92 226.51 72.27 238.37 72.27 225.27 52.35 237.74 31.39"/>
        <polygon class="cls-2" points="402.11 72.27 389.02 52.35 401.48 31.39 389.59 31.39 383.36 43.32 376.27 31.39 364.38 31.39 377.33 51.06 363.75 72.27 375.21 72.27 382.88 59.92 390.26 72.27 402.11 72.27"/>
        <path class="cls-2" d="M281.77,58.4c0,2.54-2.06,4.6-4.6,4.6s-4.6-2.06-4.6-4.6v-1.15c0-.06,0-.11,0-.17v-25.7h-10.65v27.01c0,2.54-2.06,4.6-4.6,4.6s-4.6-2.06-4.6-4.6v-27.01h-10.64v25.7c0,8.42,6.83,15.25,15.24,15.25,3.79,0,7.26-1.39,9.92-3.68,2.67,2.29,6.13,3.68,9.92,3.68,8.42,0,15.25-6.83,15.25-15.25v-25.7h-10.65v27.01Z"/>
        <path class="cls-2" d="M360.29,31.39h-6.25c-3.75,0-6.69,1.06-8.81,3.18s-3.18,5.06-3.18,8.81v28.96h11.32v-28.63c0-.77.27-1.41.79-1.9s1.14-.74,1.86-.74h10.63l-6.36-9.67Z"/>
      </g>
      <g>
        <g>
          <path class="cls-1" d="M12.96,63.27l-1.71,1.71c1.04.29,2.03.79,2.89,1.47,1.38,1.09,2.36,2.56,2.84,4.21l.96-.96c-1.89-1.94-3.57-4.1-4.98-6.43ZM11.1,31.42c.55-1.22,1.17-2.39,1.86-3.53,1.4-2.33,3.08-4.5,4.98-6.42l-5.7-5.7c-1.9,1.93-3.61,4.02-5.12,6.28-.73,1.09-1.4,2.21-2.04,3.36C2.25,30.66.48,36.6.08,42.94c-.05.89-.08,1.79-.08,2.67,0,7.2,1.81,14.03,5.04,20.03.02.03.04.08.06.11l.28-.28,5.72-5.72c-1.96-4.34-3.05-9.13-3.05-14.14,0-.72.02-1.44.07-2.16.26-4.28,1.31-8.32,2.97-12.02ZM45.13,3.17c-4.76-.29-9.39.21-13.76,1.4l6.84,6.85c2.1-.26,4.24-.33,6.41-.2,18.23,1.13,32.3,16.32,32.3,34.34,0,.72-.03,1.44-.07,2.16-.57,9.18-4.69,17.59-11.58,23.67-6.9,6.08-15.75,9.12-24.93,8.55-.72-.05-1.41-.12-2.12-.2h0c-.78-.09-1.53-.21-2.28-.36-.75-.14-1.49-.32-2.22-.51h0c-2.87-.76-5.58-1.87-8.09-3.3h0s-5.86,5.87-5.86,5.87c.43.27.85.54,1.29.8.04.03.09.05.13.07.43.26.87.5,1.31.74.62.33,1.25.65,1.89.95.48.23.97.45,1.47.66.49.21.99.41,1.48.6,1.33.51,2.68.95,4.06,1.32,2.73.74,5.55,1.22,8.48,1.4,11.33.71,22.25-3.04,30.77-10.55,8.5-7.51,13.58-17.89,14.29-29.22,1.47-23.39-16.38-43.6-39.77-45.06ZM29.83,8.41h0c-.28.94-.75,1.84-1.4,2.66-1.14,1.44-2.7,2.44-4.46,2.89l1.64,1.64c2.52-1.43,5.25-2.55,8.1-3.31l-3.88-3.88ZM27.32,5.9c-.33.13-.66.26-1,.4.33-.14.66-.26,1-.39h0Z"/>
          <g>
            <path class="cls-1" d="M42.05,45.59l-24.12,24.12-.96.96c-.48-1.65-1.46-3.12-2.84-4.21-.86-.68-1.85-1.18-2.89-1.47l1.71-1.71,17.69-17.69L12.96,27.9c-.69,1.13-1.3,2.31-1.86,3.53l-6.01-6.01c.64-1.14,1.3-2.27,2.04-3.36,1.51-2.26,3.22-4.35,5.12-6.28l5.7,5.7,24.11,24.12Z"/>
            <path class="cls-1" d="M42.05,45.59l-24.12,24.12-.96.96c-.48-1.65-1.46-3.12-2.84-4.21-.86-.68-1.85-1.18-2.89-1.47l1.71-1.71,17.69-17.69L12.96,27.9l-5.84-5.84c1.51-2.26,3.22-4.35,5.12-6.28l5.7,5.7,24.11,24.12Z"/>
          </g>
          <g>
            <path class="cls-1" d="M35.93,79.39c.75.14,1.51.26,2.28.36l-6.85,6.85c-1.38-.37-2.73-.81-4.06-1.32-.49-.2-1-.39-1.48-.6-.49-.2-.99-.43-1.47-.66-.64-.31-1.27-.62-1.89-.95-.44-.24-.88-.49-1.31-.74-.04-.02-.09-.04-.13-.07-.43-.26-.87-.52-1.29-.79h0s5.87-5.88,5.87-5.88l30-30L23.97,13.96c1.75-.44,3.31-1.45,4.46-2.89.65-.82,1.12-1.72,1.4-2.66h0l3.88,3.88,33.29,33.3-33.29,33.29h0c.74.2,1.48.37,2.23.51Z"/>
            <path class="cls-1" d="M67,45.59l-33.29,33.29h0s-6.4,6.4-6.4,6.4c-.49-.2-1-.39-1.48-.6-.49-.2-.99-.43-1.47-.66-.64-.31-1.27-.62-1.89-.95-.44-.24-.88-.49-1.31-.74-.04-.02-.09-.04-.13-.07-.43-.26-.87-.52-1.29-.79h0s5.87-5.88,5.87-5.88l30-30L23.97,13.96c1.75-.44,3.31-1.45,4.46-2.89.65-.82,1.12-1.72,1.4-2.66h0l3.88,3.88,33.29,33.3Z"/>
          </g>
        </g>
        <g>
          <path class="cls-1" d="M26.32,6.3c.33-.14.66-.26,1-.39h0c-.33.12-.66.26-1,.39Z"/>
          <path class="cls-1" d="M21.89,11.81c-1.32,0-2.6-.44-3.65-1.27-1.24-.98-2.02-2.38-2.2-3.95-.18-1.57.26-3.11,1.23-4.35S19.65.22,21.22.04c1.57-.18,3.11.26,4.35,1.23,2.55,2.02,2.99,5.74.97,8.29h0c-.98,1.24-2.38,2.02-3.95,2.2-.23.03-.46.04-.7.04ZM21.91,3.41c-.74,0-1.47.32-1.96.95-.41.52-.6,1.18-.52,1.84.08.66.41,1.25.93,1.67.52.41,1.18.6,1.84.52.66-.08,1.26-.41,1.67-.93.85-1.08.67-2.65-.41-3.51-.46-.36-1-.54-1.55-.54Z"/>
        </g>
        <g>
          <path class="cls-1" d="M5.04,65.64s.04.08.06.11l.28-.28c-.11.05-.23.11-.34.17Z"/>
          <path class="cls-1" d="M8.96,78.88c-1.28,0-2.57-.42-3.66-1.27-2.55-2.02-2.99-5.74-.97-8.29,2.02-2.55,5.74-2.98,8.29-.97,1.24.98,2.02,2.38,2.2,3.95s-.26,3.11-1.23,4.35h0c-1.16,1.47-2.89,2.24-4.64,2.24ZM8.97,70.49c-.74,0-1.47.32-1.96.95-.85,1.08-.67,2.65.41,3.51,1.08.85,2.65.67,3.51-.41h0c.41-.52.6-1.18.52-1.84-.08-.66-.41-1.26-.93-1.67-.46-.36-1-.54-1.55-.54Z"/>
        </g>
      </g>
    </g>
  </g>
</svg>